<svg width="200" height="38" viewBox="0 0 218 31" fill="none" xmlns="http://www.w3.org/2000/svg">
<path d="M7.288 5.052C11.2 5.052 14.332 5.94 16.684 7.716C19.06 9.468 20.248 12.696 20.248 17.4C20.248 22.032 19.096 25.296 16.792 27.192C14.488 29.064 11.5 30 7.828 30H0.34V5.052H7.288ZM6.244 9.336V25.716H8.188C10.132 25.716 11.608 25.116 12.616 23.916C13.624 22.692 14.128 20.52 14.128 17.4C14.128 15.264 13.876 13.608 13.372 12.432C12.868 11.256 12.184 10.452 11.32 10.02C10.456 9.564 9.388 9.336 8.116 9.336H6.244ZM38.5217 24.456C38.5217 25.176 38.6177 25.704 38.8097 26.04C39.0257 26.376 39.3617 26.628 39.8177 26.796L38.6297 30.504C37.4537 30.408 36.4937 30.156 35.7497 29.748C35.0057 29.316 34.4297 28.644 34.0217 27.732C32.7737 29.652 30.8537 30.612 28.2617 30.612C26.3657 30.612 24.8537 30.06 23.7257 28.956C22.5977 27.852 22.0337 26.412 22.0337 24.636C22.0337 22.548 22.8017 20.952 24.3377 19.848C25.8737 18.744 28.0937 18.192 30.9977 18.192H32.9417V17.364C32.9417 16.236 32.7017 15.468 32.2217 15.06C31.7417 14.628 30.9017 14.412 29.7017 14.412C29.0777 14.412 28.3217 14.508 27.4337 14.7C26.5457 14.868 25.6337 15.108 24.6977 15.42L23.4017 11.676C24.6017 11.22 25.8257 10.872 27.0737 10.632C28.3457 10.392 29.5217 10.272 30.6017 10.272C33.3377 10.272 35.3417 10.836 36.6137 11.964C37.8857 13.092 38.5217 14.784 38.5217 17.04V24.456ZM29.9177 26.544C31.2137 26.544 32.2217 25.932 32.9417 24.708V21.324H31.5377C30.2417 21.324 29.2697 21.552 28.6217 22.008C27.9977 22.464 27.6857 23.172 27.6857 24.132C27.6857 24.9 27.8777 25.5 28.2617 25.932C28.6697 26.34 29.2217 26.544 29.9177 26.544ZM58.977 10.884L52.965 30H46.233L40.077 10.884H46.269L49.653 25.68L53.181 10.884H58.977ZM66.67 10.884V30H60.982V10.884H66.67ZM63.79 0.803998C64.774 0.803998 65.578 1.116 66.202 1.74C66.85 2.34 67.174 3.108 67.174 4.044C67.174 4.98 66.85 5.76 66.202 6.384C65.578 6.984 64.774 7.284 63.79 7.284C62.806 7.284 62.002 6.984 61.378 6.384C60.754 5.76 60.442 4.98 60.442 4.044C60.442 3.108 60.754 2.34 61.378 1.74C62.002 1.116 62.806 0.803998 63.79 0.803998ZM88.2782 3.288V30H83.2382L82.9502 27.768C81.6062 29.664 79.7942 30.612 77.5142 30.612C75.1382 30.612 73.3262 29.7 72.0782 27.876C70.8542 26.052 70.2422 23.556 70.2422 20.388C70.2422 18.444 70.5662 16.704 71.2142 15.168C71.8622 13.632 72.7742 12.432 73.9502 11.568C75.1502 10.704 76.5182 10.272 78.0542 10.272C79.8782 10.272 81.3902 10.872 82.5902 12.072V2.676L88.2782 3.288ZM79.2782 26.436C80.5982 26.436 81.7022 25.716 82.5902 24.276V16.032C82.1342 15.48 81.6662 15.072 81.1862 14.808C80.7302 14.544 80.2022 14.412 79.6022 14.412C78.5462 14.412 77.7062 14.904 77.0822 15.888C76.4582 16.872 76.1462 18.384 76.1462 20.424C76.1462 22.656 76.4102 24.216 76.9382 25.104C77.4902 25.992 78.2702 26.436 79.2782 26.436ZM126.147 30H120.351L119.919 20.244C119.799 17.916 119.739 15.84 119.739 14.016C119.739 12.624 119.775 11.304 119.847 10.056L115.995 27.372H110.415L106.311 10.056C106.455 12.144 106.527 14.112 106.527 15.96C106.527 17.352 106.491 18.804 106.419 20.316L105.987 30H100.227L102.099 5.052H109.551L113.295 21.972L116.787 5.052H124.275L126.147 30ZM144.764 24.456C144.764 25.176 144.86 25.704 145.052 26.04C145.268 26.376 145.604 26.628 146.06 26.796L144.872 30.504C143.696 30.408 142.736 30.156 141.992 29.748C141.248 29.316 140.672 28.644 140.264 27.732C139.016 29.652 137.096 30.612 134.504 30.612C132.608 30.612 131.096 30.06 129.968 28.956C128.84 27.852 128.276 26.412 128.276 24.636C128.276 22.548 129.044 20.952 130.58 19.848C132.116 18.744 134.336 18.192 137.24 18.192H139.184V17.364C139.184 16.236 138.944 15.468 138.464 15.06C137.984 14.628 137.144 14.412 135.944 14.412C135.32 14.412 134.564 14.508 133.676 14.7C132.788 14.868 131.876 15.108 130.94 15.42L129.644 11.676C130.844 11.22 132.068 10.872 133.316 10.632C134.588 10.392 135.764 10.272 136.844 10.272C139.58 10.272 141.584 10.836 142.856 11.964C144.128 13.092 144.764 14.784 144.764 17.04V24.456ZM136.16 26.544C137.456 26.544 138.464 25.932 139.184 24.708V21.324H137.78C136.484 21.324 135.512 21.552 134.864 22.008C134.24 22.464 133.928 23.172 133.928 24.132C133.928 24.9 134.12 25.5 134.504 25.932C134.912 26.34 135.464 26.544 136.16 26.544ZM161.283 29.1C160.587 29.58 159.771 29.952 158.835 30.216C157.923 30.48 157.011 30.612 156.099 30.612C151.923 30.588 149.835 28.284 149.835 23.7V14.844H147.135V10.884H149.835V6.744L155.523 6.096V10.884H159.915L159.303 14.844H155.523V23.628C155.523 24.516 155.667 25.152 155.955 25.536C156.243 25.92 156.699 26.112 157.323 26.112C157.971 26.112 158.655 25.908 159.375 25.5L161.283 29.1ZM179.216 20.064C179.216 20.856 179.18 21.54 179.108 22.116H167.264C167.456 23.724 167.912 24.852 168.632 25.5C169.352 26.148 170.348 26.472 171.62 26.472C172.388 26.472 173.132 26.34 173.852 26.076C174.572 25.788 175.352 25.356 176.192 24.78L178.532 27.948C176.3 29.724 173.816 30.612 171.08 30.612C167.984 30.612 165.608 29.7 163.952 27.876C162.296 26.052 161.468 23.604 161.468 20.532C161.468 18.588 161.816 16.848 162.512 15.312C163.208 13.752 164.228 12.528 165.572 11.64C166.916 10.728 168.524 10.272 170.396 10.272C173.156 10.272 175.316 11.136 176.876 12.864C178.436 14.592 179.216 16.992 179.216 20.064ZM173.636 18.444C173.588 15.516 172.556 14.052 170.54 14.052C169.556 14.052 168.788 14.412 168.236 15.132C167.708 15.852 167.384 17.04 167.264 18.696H173.636V18.444ZM198.54 30H193.608L193.356 27.588C191.964 29.604 190.032 30.612 187.56 30.612C185.808 30.612 184.476 30.084 183.564 29.028C182.676 27.972 182.232 26.496 182.232 24.6V10.884H187.92V23.88C187.92 24.816 188.064 25.476 188.352 25.86C188.664 26.22 189.132 26.4 189.756 26.4C190.956 26.4 191.988 25.656 192.852 24.168V10.884H198.54V30ZM209.745 10.272C211.113 10.272 212.397 10.476 213.597 10.884C214.797 11.292 215.853 11.868 216.765 12.612L214.677 15.816C213.117 14.832 211.545 14.34 209.961 14.34C209.217 14.34 208.641 14.472 208.233 14.736C207.849 14.976 207.657 15.324 207.657 15.78C207.657 16.14 207.741 16.44 207.909 16.68C208.101 16.896 208.473 17.124 209.025 17.364C209.577 17.604 210.429 17.892 211.581 18.228C213.573 18.804 215.049 19.56 216.009 20.496C216.993 21.408 217.485 22.68 217.485 24.312C217.485 25.608 217.113 26.736 216.369 27.696C215.625 28.632 214.605 29.352 213.309 29.856C212.013 30.36 210.573 30.612 208.989 30.612C207.381 30.612 205.881 30.36 204.489 29.856C203.121 29.352 201.957 28.656 200.997 27.768L203.769 24.672C205.377 25.92 207.069 26.544 208.845 26.544C209.709 26.544 210.381 26.388 210.861 26.076C211.365 25.764 211.617 25.32 211.617 24.744C211.617 24.288 211.521 23.928 211.329 23.664C211.137 23.4 210.765 23.16 210.213 22.944C209.661 22.704 208.785 22.416 207.585 22.08C205.689 21.528 204.273 20.76 203.337 19.776C202.401 18.792 201.933 17.568 201.933 16.104C201.933 15 202.245 14.016 202.869 13.152C203.517 12.264 204.429 11.568 205.605 11.064C206.805 10.536 208.185 10.272 209.745 10.272Z" fill="black"/>
</svg>
